<svg xmlns="http://www.w3.org/2000/svg" viewBox="0 0 120 120" width="120" height="120">
  <path d="M50 24c0-7 8-7 8-14" stroke="#14532d" stroke-width="3" fill="none" stroke-linecap="round" opacity=".4"/>
  <path d="M68 26c0-7 8-7 8-14" stroke="#14532d" stroke-width="3" fill="none" stroke-linecap="round" opacity=".4"/>
  <path d="M16 54h88c0 18-12 28-26 28H42c-14 0-26-10-26-28z" fill="#f5f5f4"/>
  <ellipse cx="60" cy="54" rx="44" ry="8" fill="#e7e5e4"/>
  <ellipse cx="60" cy="54" rx="36" ry="6" fill="#ea580c"/>
  <circle cx="48" cy="53" r="3.4" fill="#22c55e"/>
  <circle cx="70" cy="55" r="3" fill="#dc2626"/>
  <path d="M104 58c8 0 12 5 12 10s-6 9-13 8" stroke="#f5f5f4" stroke-width="7" fill="none" stroke-linecap="round"/>
  <rect x="26" y="88" width="68" height="9" rx="4.5" fill="#14532d"/>
</svg>
